/* XPM */
static char *_a8e4e3ee6f0454e857d55493058e4b575fOFFDUDwB6QOhC[] = {
/* columns rows colors chars-per-pixel */
"34 28 6 1 ",
"  c #3D253B",
". c #523B40",
"X c #25131A",
"o c #895A45",
"O c #BF704D",
"+ c None",
/* pixels */
"+++++XXXXX++++++++++++++++++++++++",
"+++++Xo...X+++++++++++++++++++++++",
"XXXXXXo...X++++++++++++++++++XXXX+",
"XOOOoOOOO.XXXX++++++++++XXXXXoooX+",
"XOOOoOOOOOOOOOXXXXXX++++XOOOooooX+",
"XOOOoOOOOOOOOOOOOOOOXXXXXOOOooooX+",
"XOOO....OOOOOOOOOOOOOOOOoOOOoo.oX+",
"XOOO.oooo...oOOOOOOOOOOOoOOOo .oX+",
"XOOO.ooooOOOOo....oOOOOOoOOOo .oX+",
"XOOO.ooooOOOOOOOOOO.oooooOOOo .oX+",
"XOOO.ooooOOO....OOO.ooooOOOOo .oX+",
"XOOO.ooooOOO.oooOOO.ooooOOOo  .oX+",
"XOOO.ooooOOO.oooOOO.ooooOOOo  .oX+",
"XOOO.oooo...ooooOOO.ooooOOOo  .oX+",
"XOOO.oooooooooOOOOO.ooooOOOo   .oX",
"XOOOO.oooooooOOOOOO.ooooOOOo   .oX",
"+XOOO.oooooooOOOOO.oooooOOOo   .oX",
"+XOOO.oooooooOOO..ooooooOOOo   .oX",
"+XOOO.oooooooOOO.oooooooOOOo   .oX",
"+XOOO.ooooooo....ooooooOOOOo   .oX",
"+XOOO.ooooooOOO.oooooooOOOo    .oX",
"+XOOO.ooooooOOO.oooooooOOOo    .oX",
"+XOOO.ooooooOOO.oooooooOOOo    .oX",
"+XOOO.oooooooooooooooooOOOo.....oX",
"+XOOOOOOOOOOOOoooooooooOOOoooooooX",
"+XOOOOOOOOOOOOOOOOOOOOoOOOoooooooX",
"+XOOOOOOOOOOOOOOOOOOOOoOOOoooooooX",
"+XXXXXXXXXXXXXXXXXXXXXXXXXXXXXXXXX"
};
