/* XPM */
static char *_60f413ddf104ab39c5c2b968e70c286mQGuhEKXTGUryZUZ[] = {
/* columns rows colors chars-per-pixel */
"48 48 10 1 ",
"  c #606060",
". c #FFD569",
"X c #523B40",
"o c #CAE6F5",
"O c #BF704D",
"+ c #D1851E",
"@ c #895A45",
"# c #3D253B",
"$ c #25131A",
"% c None",
/* pixels */
"%%%%%%%%%%%%%%%%%%%%%%%%%%%%%%%%%%%%%%%%%%%%%%%%",
"%%%%%%%%%%%%%%%%%%%%%%%%%%%%%%%%%%%%%%%%%%%%%%%%",
"%%%%%%%%%%%%%%%%%%%%%%%%%%%%%%%%%%%%%%%%%%%%%%%%",
"%%%%%%%%%%%%%%%%%%%%%%%%%%%%%%%%%%%%%%%%%%%%%%%%",
"%%%%%%%%%%%%%%%%%%%%%%%%%%%%%%%%%%%%%%%%%%%%%%%%",
"%%%%%%%%%%%%%%%%%%%%%%%%%%%%%%%%%%%%%%%%%%%%%%%%",
"%%%%%%%%%%%%%%%%%%%%%%%%%%%%%%%%%%%%%%%%%%%%%%%%",
"%%%%%%%%%%%%%%%%%%%%%%%%%%%%%%%%%%%%%%%%%%%%%%%%",
"%%%%%%%%%%%%%%%%%%%%%%%%%%%%%%%%%%%%%%%%%%%%%%%%",
"%%%%%%%%%%%%%%%%%%%%%%%%%%%%%%%%%%%%%%%%%%%%%%%%",
"%%%%%%%%%%%%%%%%%%%%%%%%%%%%%%%%%%%%%%%%%%%%%%%%",
"%%%%%%%%%%%%%%%%%%%%%%%%%%%%%%%%%%%%%%%%%%%%%%%%",
"%%%%%%%%%%%%%%$$$$%%%%%%%%%%%%%%%%%%%%%%%%%%%%%%",
"%%%%%%%%%%%%%$####$%%%%%%%%%%%%%%%%%%%%%%%%%%%%%",
"%%%%%%%%%%%%$#####$%%%%%%%%%%%%%%%%%%%%%%%%%%%%%",
"%%%%%%%%%%%%$######$%%%%%%%%%%%%%%%%%%%%%%%%%%%%",
"%%%%%%%%%%%%$##oooo$%%%%%%%%%%%%%%%%%%%%%%%%%%%%",
"%%%%%%%%%%%%%$oo####$%%%%%%%%%%%%%%%%%%%%%%%%%%%",
"%%%%%%%%%%%%$#######$%%%%%%%%%%%%%%%%%%%%%%%%%%%",
"%%%%%%%%%%%%$###OOO$%%%%%%%%%%%%%%%%%%%%%%%%%%%%",
"%%%%%%%%%%%%%$OOOOO$%%%%%%%%%%%%%%%%%%%%%%%%%%%%",
"%%%%%%%%%%%%%$OOOOO$%%%%%%%%%%%%%%%%%%%%%%%%%%%%",
"%%%%%%%%%%%$$##oOOOo$%%%%%%%%%%%%%%%%%%%%%%%%%%%",
"%%%%%%%%%%$...##oOOo#$%%%%%%%%%%%%%%%%%%%%%%%%%%",
"%%%%%%%%%$.....#oooo#$%%%%%%%%%%%%%%%%%%%%%%%%%%",
"%%%%%%%$$+.....##oo##$%%%%%%%%%%%%%%%%%%%%%%%%%%",
"%%%%%$$+++.....##oo##$%%%%%%%%%%%%%%%%%%%%%%%%%%",
"%%%%$++++$$...####o##$%%%%%%%%%%%%%%%%%%%%%%%%%%",
"%%%%$..$$%%$######o#$%%%%%%%%%%%%%%%%%%%%%%%%%%%",
"%%%%$..$%%%$######o#$%%%%%%%%%%%%%%%%%%%%%%%%%%%",
"%%%%%$+$%%%%$#######$$%%%%%%%%%%%%%%%%%%%%%%%%%%",
"%%%%%$+$%%%%$########+$%%%%%%%%%%%%%%%%%%%%%%%%%",
"%%%%%%$+$%%%$########++$%%%%%%%%%%%%%%%%%%%%%%%%",
"%%%%%%$..$%$##### X##++$%%%%%%%%%%%%%%%%%%%%%%%%",
"%%%%%%$...$$###   XX#$$%%%%%%%%%%%%%%%%%%%%%%%%%",
"%%%%%%$..$$$     XXXXX$%%%%%%%%%%%%%%%%%%%%%%%%%",
"%%%%%%%$$%%$    $$$XXX$%%%%%%%%%%%%%%%%%%%%%%%%%",
"%%%%%%%%%%%$   $%%$XXXX$%%%%%%%%%%%%%%%%%%%%%%%%",
"%%%%%%%%%%$    $%%$XXXX$%%%%%%%%%%%%%%%%%%%%%%%%",
"%%%%%%%%%%$   $%%%%$XXX$%%%%%%%%%%%%%%%%%%%%%%%%",
"%%%%%%%%%%$   $%%%%$XXX$%%%%%%%%%%%%%%%%%%%%%%%%",
"%%%%%%%%%%$   $%%%%$XXX$%%%%%%%%%%%%%%%%%%%%%%%%",
"%%%%%%%%%$   $%%%%%$XXX$%%%%%%%%%%%%%%%%%%%%%%%%",
"%%%%%%%%%$   $%%%%%$@@$%%%%%%%%%%%%%%%%%%%%%%%%%",
"%%%%%%%%$   $%%%%%%$@@$%%%%%%%%%%%%%%%%%%%%%%%%%",
"%%%%%%%%$   $%%%%%%%$@$%%%%%%%%%%%%%%%%%%%%%%%%%",
"%%%%%%%$#  $%%%%%%%%$@$%%%%%%%%%%%%%%%%%%%%%%%%%",
"%%%%%%%$##$%%%%%%%%%$@$%%%%%%%%%%%%%%%%%%%%%%%%%"
};
