/* XPM */
static char *a75063c9e9f040b3a8990714556a4495fHyIRiVlpPUcsCV6[] = {
/* columns rows colors chars-per-pixel */
"32 23 111 2 ",
"   c black",
".  c #8D768A",
"X  c #8D768A",
"o  c #8D768A",
"O  c #8D768A",
"+  c #8D768A",
"@  c #8D768A",
"#  c #8D768A",
"$  c #8D768A",
"%  c #8F7689",
"&  c #AE7874",
"*  c #E17B50",
"=  c #9E777E",
"-  c #8D768A",
";  c #8D768A",
":  c #8D768A",
">  c #967784",
",  c #CD7A5E",
"<  c #E17B50",
"1  c #BC7969",
"2  c #8D768A",
"3  c #977783",
"4  c #CF7A5C",
"5  c #E17B50",
"6  c #BE7968",
"7  c #DC754A",
"8  c #DA7449",
"9  c #DB7549",
"0  c #DF794D",
"q  c #CE795B",
"w  c #BE5728",
"e  c #B64F20",
"r  c #B85223",
"t  c #D16B3F",
"y  c #C96335",
"u  c #C45E30",
"i  c #C65F32",
"p  c #D77144",
"a  c #867184",
"s  c #867184",
"d  c #8A7182",
"f  c #9E7374",
"g  c #A4736F",
"h  c #9B747A",
"j  c #3E3943",
"k  c #3E3943",
"l  c #3E3943",
"z  c #5F5260",
"x  c #202330",
"c  c #202330",
"v  c #202330",
"b  c #1F222E",
"n  c #1A1E27",
"m  c #463F4B",
"M  c #544A58",
"N  c #1C202A",
"B  c #1F222F",
"V  c #31314B",
"C  c #31314B",
"Z  c #373248",
"A  c #5B3736",
"S  c #663931",
"D  c #5F352F",
"F  c #3C2625",
"G  c #2C2A32",
"H  c #534957",
"J  c #3A353E",
"K  c #4C2D2A",
"L  c #633730",
"P  c #3F3344",
"I  c #8B3D1F",
"U  c #A44113",
"Y  c #983D13",
"T  c #5C2B15",
"R  c #111519",
"E  c #10161B",
"W  c #111519",
"Q  c #5D2B15",
"!  c None",
"~  c #8E3E1D",
"^  c #A84111",
"/  c #A23F11",
"(  c #843612",
")  c #5D2B14",
"_  c #5C2B14",
"`  c #3E3245",
"'  c #853622",
"]  c #9C3817",
"[  c #9C3816",
"{  c #A33D13",
"}  c #A64111",
"|  c #A03C13",
" . c #983717",
".. c #9E3B14",
"X. c #A54011",
"o. c #3B3046",
"O. c #71282B",
"+. c #832522",
"@. c #842621",
"#. c #983518",
"$. c #993518",
"%. c #94321A",
"&. c #3B3246",
"*. c #753A2A",
"=. c #883C21",
"-. c #31314B",
";. c #31314B",
":. c #31314B",
">. c #31314B",
",. c #31314B",
"<. c #31314B",
/* pixels */
"      . X o O               + @ @ +               O o X .       ",
"      # $ % & * * * * * * * = - - = * * * * * * * & % $ #       ",
"      ; : > , < < < < < < < 1 2 2 1 < < < < < < < , > : ;       ",
"      ; : 3 4 5 5 5 5 5 5 5 6 2 2 6 5 5 5 5 5 5 5 4 3 : ;       ",
"      ; : 3 4 5 5 5 5 5 5 5 6 2 2 6 5 5 5 5 5 5 5 4 3 : ;       ",
"      ; : 3 4 7 8 8 9 0 5 5 6 2 2 6 5 5 5 5 5 5 5 4 3 : ;       ",
"      ; : 3 q w e e r t 5 5 6 2 2 6 5 5 5 5 5 5 5 4 3 : ;       ",
"      ; : 3 q y u u i p 5 5 6 2 2 6 5 5 5 5 5 5 5 4 3 : ;       ",
"      ; : 3 4 5 5 5 5 5 5 5 6 2 2 6 5 5 5 5 5 5 5 4 3 : ;       ",
"      ; : 3 4 5 5 5 5 5 5 5 6 2 2 6 5 5 5 5 5 5 5 4 3 : ;       ",
"      a s d f g g g g g g g h 2 2 h g g g g g g g f d s a       ",
"      j k l l l l l l l l l z 2 2 z l l l l l l l l l k j       ",
"      x c v v v v v v v b n m 2 2 M N B v v v v v v v c x       ",
"      V C Z A S S S S S D F G H H J K L S S S S S A Z C V       ",
"      V C P I U U U U U Y T R E E W Q ! U U U U U I P C V       ",
"      V C P ~ ^ ^ ^ ^ ^ / ( ) _ _ ) ( / ^ ^ ^ ^ ^ ~ P C V       ",
"      V C ` ' ] [ { ^ ^ ^ } |  ...X.} ^ ^ ^ { [ ] ' ` C V       ",
"      V C o.O.+.@.#.^ ^ ^ ^ $.+.%.^ ^ ^ ^ ^ #.@.+.O.o.C V       ",
"      V C P ~ ^ ^ ^ ^ ^ ^ ^ ^ ^ ^ ^ ^ ^ ^ ^ ^ ^ ^ ~ P C V       ",
"      V C &.*.=.=.=.=.=.=.=.=.=.=.=.=.=.=.=.=.=.=.*.&.C V       ",
"      -.;.:.:.:.:.:.:.:.:.:.:.:.:.:.:.:.:.:.:.:.:.:.:.;.-.      ",
"      >.,.<.<.<.<.<.<.<.<.<.<.<.<.<.<.<.<.<.<.<.<.<.<.,.>.      ",
"                                                                "
};
