/* XPM */
static char *_681f969b4834048a1e5931c7a55697dtT3PaYKVk0TyFqAR[] = {
/* columns rows colors chars-per-pixel */
"32 32 6 1 ",
"  c None",
". c #E17B50",
"X c #A84111",
"o c #211D1D",
"O c #70162B",
"+ c #FAFA82",
/* pixels */
"            ......              ",
"         ............           ",
"       ................         ",
"      .....XXXXXXXX.....        ",
"     ....XXXXXXXXXXXX....       ",
"    ...XXXXXXXXXXXXXXXX...      ",
"   ...XXXXXXooooooXXXXXX...     ",
"  ...XXXXXooooooooooXXXXX...    ",
"  ..XXXXXoooXXXXXXoooXXXXX..    ",
" ..XXXXXooXOXXXXXXXXooXXXXX..   ",
" .XXXXXooXXOXXXXXXXXXooXXXXX.   ",
" .XXXXooXXXOXXXXXXXXXXooXXXX.   ",
".XXXXooXXXXXXXXXXXOXXXXooXXXX.  ",
".XXXXooXXXXXXXXXXXOXXXXooXXXX.  ",
".XXXooXXXXXXXXXXXXOXXXXXooXXX.  ",
".XXXooXXXXXXXXXXXXOXXXXXooXXX.  ",
".XXXooXXXXXOXXXXXXOXXXXXooXXX.  ",
"XXXXooXXXXXOXXXXXXXXXXXXooXXXX  ",
"XXXXooXXXXXOXXXXXXXX++XXooXXXX  ",
"XXXXooXXXXXOXXXXXXX++++XooXXXX  ",
"XXXXooXXXXXOXXXXXXX++++XooXXXX  ",
"XXXXooXXXXXXXXXXXXXO++OXooXXXX  ",
"XXXXooXXXXXXXXXXXXXXOOXXooXXXX  ",
"XXXXooXXXXXXXXXXXXXXXXXXooXXXX  ",
"XXXXooXXXXXXXXXXXXOXXXXXooXXXX  ",
"XXXXooXXXXXOXXXXXXOXXXXXooXXXX  ",
"XXXXooXXXXXOXXXXXXOXXXXXooXXXX  ",
"XXXXooXXXXXOXXXXXXOXXXXXooXXXX  ",
"XXXXooXXXXXOXXXXXXXXXXXXooXXXX  ",
"XXXXooXXXXXOXXXXXXXXXXXXooXXXX  ",
"XXXXooXXXXXOXXXXXXOXXXXXooXXXX  ",
"XXXXoo                  ooXXXX  "
};
