/* XPM */
static char *_5332211452744768e97014087d89d0aSv5dxcktd3bgGDxU[] = {
/* columns rows colors chars-per-pixel */
"32 32 3 1 ",
"  c #0C1317",
". c #323C39",
"X c #696A6A",
/* pixels */
"      ........    .XXXXXXX...   ",
" ....XXXXXXX......XXXXXXXXXX... ",
" ...XXXXXXXXXXXXXX..XXXXXXXX.XX.",
"...XXXX...XXXXXXX....XXXXXXX XXX",
".X.XXX.....XXXXXX....XXXXXXX XXX",
"XXXXXX.....XXXXXXX..XXX....XXXXX",
"XXXXXX.....XXXXXXXXXXX......XXXX",
"XX.XXXX...XXXXXXXXXXX........XXX",
"XX.XXXXXXXXXXXXXXXXX.........XX.",
".X..XXXXXXXXXXXXXXXX.........X..",
"...XXXXXXXXXXXXXXXXX.........X..",
"..XXXXXXXXXXXXXXXXXX........XXX.",
".XXXXXXXXXXXXXXXXXXXX......XXXXX",
".XXXXXXX...XXXXXXXXXXX....XXXXXX",
" XXXXXX.....XXXXXXXXXXXXXXXXXXXX",
" XXXXX.......XXXXXXXXXXXXXXXX..X",
" .XXXX........XXXXX..XXXXXXX....",
" ..XXX........XXXX....XXXXXX....",
" ..XXXX.......XXXX....XXXXXXX...",
" ..XXXXX......XXXXX..XXXXXXXXXX.",
"..XXXXXXX....XXXXXXXXXXXXXXXXXXX",
".X..XXXXXXXXXXXXXXXXXX..XXXXXXXX",
".....XXXXXXXXXXXXXXXX....XXXXXX.",
".....XXXXXXXXXXXXXXX......XXXXX.",
" ...XXXXXXXXXXXXXXXX.......X XX.",
" ...XXXXXX...XXXXXX........XX . ",
" ..XXXXXX.....XXXXX.......XXXX. ",
".XXXXXXXX......XXXXX.....XXXXXX ",
".XXXXXXXXX.....XXXXXX..XXXX..XX.",
".XXXXXXXXXXX.XXXXXXXXXXXXX....X.",
" XXXXX.XXXXXXXXXXXXXXXXXXXX..XX.",
" .XXX...XXXXX.XXXXXXX. .XXXXXX.."
};
