/* XPM */
static char *c87848b5223d409fa31b0c45e68c4fa3nzyPsBV46PwJfNcI[] = {
/* columns rows colors chars-per-pixel */
"32 39 157 2 ",
"   c None",
".  c #070708",
"X  c #070709",
"o  c #181A1F",
"O  c #1B1D22",
"+  c #2B2D37",
"@  c #393E49",
"#  c #353A44",
"$  c #2C387F",
"%  c #364A7D",
"&  c #3D527D",
"*  c #414555",
"=  c #6F535B",
"-  c #54576D",
";  c #5F576F",
":  c #525A6B",
">  c #425A7C",
",  c #5D5773",
"<  c #5A5875",
"1  c #555B77",
"2  c #675564",
"3  c #6A5362",
"4  c #67586B",
"5  c #4B6077",
"6  c #466A7D",
"7  c #516575",
"8  c #5E657F",
"9  c #576E74",
"0  c #46727F",
"q  c #49747E",
"w  c #5F7470",
"e  c #537D7A",
"r  c #5A7A75",
"t  c #6F687F",
"y  c #676475",
"u  c #A74214",
"i  c #A84111",
"p  c #A84619",
"a  c #A6461B",
"s  c #9A4523",
"d  c #A84F29",
"f  c #AB5E3D",
"g  c #945A4A",
"h  c #A65E42",
"j  c #A76751",
"k  c #A76854",
"l  c #81696F",
"z  c #88696D",
"x  c #84656A",
"c  c #5B8377",
"v  c #68836F",
"b  c #738E6C",
"n  c #6F946F",
"m  c #73966E",
"M  c #76996D",
"N  c #7C9E6A",
"B  c #608775",
"V  c #668B73",
"C  c #688F72",
"Z  c #6C9171",
"A  c #7FA069",
"S  c #82A368",
"D  c #293781",
"F  c #2E3C82",
"G  c #303F86",
"H  c #2E4482",
"J  c #2E4882",
"K  c #314E82",
"L  c #345482",
"P  c #3F5485",
"I  c #365D83",
"U  c #3B6682",
"Y  c #3B6983",
"T  c #455C8A",
"R  c #4A5E8A",
"E  c #426F80",
"W  c #466C8D",
"Q  c #447080",
"!  c #526A94",
"~  c #5E7092",
"^  c #54709A",
"/  c #686A87",
"(  c #6A6C89",
")  c #666784",
"_  c #756880",
"`  c #7C6C83",
"'  c #6C738C",
"]  c #6F7290",
"[  c #687896",
"{  c #6A7A98",
"}  c #797E9C",
"|  c #777C9A",
" . c #607AA2",
".. c #8D768A",
"X. c #7C889F",
"o. c #798297",
"O. c #6C80A1",
"+. c #7D84A2",
"@. c #778BA6",
"#. c #7285A2",
"$. c #7790B1",
"%. c #7A92B4",
"&. c #9C929E",
"*. c #A68684",
"=. c #A58E93",
"-. c #A69197",
";. c #B19591",
":. c #8087A5",
">. c #828DA6",
",. c #848CAA",
"<. c #8C8FAC",
"1. c #8F9FA8",
"2. c #8793A9",
"3. c #9894AE",
"4. c #9F98A9",
"5. c #9693AD",
"6. c #8B95B3",
"7. c #8B9AB4",
"8. c #8F9AB8",
"9. c #8593B1",
"0. c #9A97B1",
"q. c #9A99B3",
"w. c #919CBA",
"e. c #9C9EB9",
"r. c #939AB7",
"t. c #A99BA4",
"y. c #A69EAE",
"u. c #96A8AD",
"i. c #8BA2BF",
"p. c #9CA2BD",
"a. c #92A0BB",
"s. c #A5A4B7",
"d. c #8FA2C4",
"f. c #96A4C1",
"g. c #9DA5C2",
"h. c #9BAAC5",
"j. c #9CACCB",
"k. c #A5AEC8",
"l. c #A3B1CE",
"z. c #A5B5D4",
"x. c #A7B8D6",
"c. c #AABBD7",
"v. c #ADBFDA",
"b. c #AFC1DB",
"n. c #B2C5DD",
"m. c #B6C9DF",
"M. c #B6CAE0",
"N. c #BACEE3",
"B. c #BED2E5",
"V. c #C4DAEA",
"C. c #C1D5E6",
"Z. c #CBE3EF",
"A. c #CFE7F1",
"S. c #D2EBF4",
"D. c #D7F0F7",
"F. c #DEF9FC",
"G. c #D9F3F8",
/* pixels */
"                                      i i i i                   ",
"                                                                ",
"                                                                ",
"F.G.                                                            ",
"F.Z.                                                            ",
"F.m.z.                z.z.z.z.z.z.z.                            ",
"  ;.=.              z.V.V.V.V.V.n.x.z.                          ",
"  f                 z.N.A.S.Z.B.b.x.z.z.                        ",
"              e.r.6.z.v.A.D.V.b.x.z.z.f.( z.q.                  ",
"          z.3.0.<.+.z.X.1.u.2.o.a.l.z.6.) z.3.g.z.z.    L L     ",
"        z.z.3.q.<.+.l.+ . . X O ' f.z.6./ z.5.p.z.j.d.W H D     ",
"      z.z.z.e.p.6.+.z.j.# o : h.l.z.j.6.} z.>.9.%. .L H K I     ",
"    j s.z.z.l.l.w.+.z.z.@ O : l.h.h.7.>.7.i.! T T P % L I U     ",
"    h *.z.z.z.j.7.+.f.z.@ O : f.@.#.{ [ O.^ P % & 5 9 U U Y     ",
"    d k   z.h.w.7.6.7.w.* + : @.R T T R T K 7 9 w v C E Y Y     ",
"    i       | :.w.j.w.+.< - 8 ~ F F K L L L m S S N C E E E     ",
"    p       < +.f.z.z.w.7.7.9.O.F J I Y Y Y m S S N C Q e B     ",
"  y.-.      < } f.z.z.B.v.z.h.$.G J I Y Y Y m S S N C c Z M     ",
"z.l.k.g.,.< < | f.z.z.S.M.z.j.%.G J I Y Y Y m S S S N M N S     ",
"z.z.j.7.] < < ( ,.h.z.S.N.z.j.%.G J I Y E c N S S S S S S S     ",
"z.z.j.,./ < < < ' 8.z.S.N.x.j.%.G & 6 e c S S S S S S N M n     ",
"z.z.l.h.,.< < < ( ,.l.C.N.v.j.%.G 7 b S S S S S S S S m e 0     ",
"  s.y.4.,.< < < < t -.l.M.n.j.%.G 7 b S S S S S S S N e E Y     ",
"    h h       < < 4 g =.t.t.&.o.G 7 b S S S S S S N Z 0 Y Y     ",
"    i       < < < ; = x z z l y F > r V V V N S S N C E Y Y     ",
"          < < < < < < 2 3 3 2 - $ % 6 q q q M S S N C E Y Y     ",
"        s , < < < < < < < < 1 > D J I Y Y Y m S S N C E Y Y     ",
"        s , < < < < < < <       D J I Y Y Y m S S N C E Y Y     ",
"        u   < < < < < <         D J I Y Y Y m S S N C E Y Y     ",
"        i     < < < < <         D J I Y Y Y m S S N C E Y Y     ",
"        u     ` _ _ _ _         D J I Y Y Y m S S N C E Y Y     ",
"        a   ............        D J I Y Y Y m S S N C E Y Y     ",
"            ............        D J I Y Y Y m S S N C E Y       ",
"                                D J I Y Y Y m S S N C Q         ",
"                                D J I Y Y Y m S S A             ",
"                                D J I Y Y Y m S S               ",
"                                                                ",
"                                                                ",
"          z.z.z.z.z.                                            "
};
